<?xml version="1.0" encoding="UTF-8" standalone="no"?>
<!DOCTYPE svg PUBLIC "-//W3C//DTD SVG 1.1//EN" "http://www.w3.org/Graphics/SVG/1.1/DTD/svg11.dtd">
<svg width="100%" height="100%" viewBox="0 0 200 40" version="1.1" xmlns="http://www.w3.org/2000/svg" xmlns:xlink="http://www.w3.org/1999/xlink" xml:space="preserve" xmlns:serif="http://www.serif.com/" style="fill-rule:evenodd;clip-rule:evenodd;stroke-linejoin:round;stroke-miterlimit:2;">
    <rect id="storybook-logo" serif:id="storybook logo" x="0" y="-0" width="200" height="40" style="fill:none;"/>
    <path d="M23.85,6.648C24.739,5.425 26.398,5.055 27.722,5.784C32.649,8.534 36,13.794 36,19.831C36,28.662 28.831,35.831 20,35.831C11.169,35.831 4,28.662 4,19.831C4,13.811 7.331,8.564 12.25,5.833C13.559,5.107 15.204,5.468 16.088,6.676C16.983,7.848 18.39,8.619 19.976,8.619C21.567,8.619 22.978,7.842 23.85,6.648ZM23.163,25.7C22.713,26.978 21.499,27.838 20.144,27.838C18.389,27.838 16.944,26.394 16.944,24.638L16.944,24.631C16.944,23.845 17.492,23.26 18.058,22.788C19.21,21.828 20.65,21.349 20.65,21.349C21.488,21.07 21.941,20.163 21.662,19.325C21.383,18.487 20.476,18.034 19.638,18.313C19.638,18.313 17.622,18.986 16.009,20.33C14.731,21.395 13.744,22.856 13.744,24.631L13.744,24.638C13.744,28.149 16.633,31.038 20.144,31.038C22.853,31.038 25.282,29.318 26.181,26.762C26.474,25.929 26.036,25.015 25.203,24.722C24.37,24.429 23.456,24.867 23.163,25.7ZM20.063,11.009C19.366,11.009 18.788,11.234 18.329,11.684C17.87,12.135 17.64,12.717 17.64,13.431C17.64,14.145 17.87,14.727 18.329,15.178C18.788,15.628 19.366,15.853 20.063,15.853C20.743,15.853 21.316,15.628 21.784,15.178C22.251,14.727 22.485,14.145 22.485,13.431C22.485,12.717 22.251,12.135 21.784,11.684C21.316,11.234 20.743,11.009 20.063,11.009Z" style="fill:rgb(252,252,253);"/>
    <g transform="matrix(27.9607,0,0,27.9607,42.039,29.5905)">
        <path d="M0.07,-0L0.07,-0.496L0.194,-0.496L0.194,-0.442L0.212,-0.442C0.221,-0.459 0.235,-0.473 0.255,-0.486C0.275,-0.498 0.301,-0.504 0.334,-0.504C0.369,-0.504 0.398,-0.497 0.419,-0.484C0.44,-0.47 0.457,-0.452 0.468,-0.43L0.486,-0.43C0.497,-0.451 0.513,-0.469 0.534,-0.483C0.555,-0.497 0.584,-0.504 0.622,-0.504C0.653,-0.504 0.681,-0.498 0.706,-0.485C0.731,-0.472 0.751,-0.452 0.766,-0.426C0.781,-0.399 0.788,-0.366 0.788,-0.326L0.788,-0L0.662,-0L0.662,-0.317C0.662,-0.344 0.655,-0.365 0.641,-0.379C0.627,-0.392 0.607,-0.399 0.582,-0.399C0.553,-0.399 0.531,-0.39 0.516,-0.372C0.5,-0.353 0.492,-0.327 0.492,-0.293L0.492,-0L0.366,-0L0.366,-0.317C0.366,-0.344 0.359,-0.365 0.345,-0.379C0.331,-0.392 0.311,-0.399 0.286,-0.399C0.257,-0.399 0.235,-0.39 0.22,-0.372C0.204,-0.353 0.196,-0.327 0.196,-0.293L0.196,-0L0.07,-0Z" style="fill:rgb(252,252,253);fill-rule:nonzero;"/>
    </g>
    <g transform="matrix(27.9607,0,0,27.9607,65.9175,29.5905)">
        <path d="M0.296,0.014C0.247,0.014 0.203,0.003 0.166,-0.018C0.128,-0.039 0.098,-0.068 0.078,-0.107C0.056,-0.145 0.046,-0.19 0.046,-0.242L0.046,-0.254C0.046,-0.306 0.056,-0.351 0.077,-0.39C0.098,-0.428 0.127,-0.458 0.164,-0.479C0.201,-0.5 0.245,-0.51 0.294,-0.51C0.343,-0.51 0.385,-0.499 0.421,-0.478C0.457,-0.456 0.485,-0.426 0.505,-0.388C0.525,-0.349 0.535,-0.305 0.535,-0.254L0.535,-0.211L0.174,-0.211C0.175,-0.177 0.188,-0.149 0.212,-0.128C0.236,-0.107 0.265,-0.096 0.3,-0.096C0.335,-0.096 0.361,-0.104 0.378,-0.119C0.395,-0.134 0.407,-0.151 0.416,-0.17L0.519,-0.116C0.51,-0.099 0.496,-0.08 0.479,-0.06C0.461,-0.039 0.437,-0.022 0.408,-0.008C0.379,0.007 0.341,0.014 0.296,0.014ZM0.175,-0.305L0.407,-0.305C0.404,-0.334 0.393,-0.357 0.373,-0.374C0.352,-0.391 0.326,-0.4 0.293,-0.4C0.259,-0.4 0.232,-0.391 0.212,-0.374C0.192,-0.357 0.18,-0.334 0.175,-0.305Z" style="fill:rgb(252,252,253);fill-rule:nonzero;"/>
    </g>
    <g transform="matrix(27.9607,0,0,27.9607,82.0508,29.5905)">
        <path d="M0.303,0.014C0.255,0.014 0.212,0.004 0.173,-0.016C0.134,-0.036 0.103,-0.065 0.08,-0.103C0.057,-0.141 0.046,-0.187 0.046,-0.241L0.046,-0.255C0.046,-0.309 0.057,-0.355 0.08,-0.393C0.103,-0.431 0.134,-0.46 0.173,-0.48C0.212,-0.5 0.255,-0.51 0.303,-0.51C0.35,-0.51 0.391,-0.502 0.425,-0.485C0.459,-0.468 0.487,-0.446 0.508,-0.417C0.529,-0.388 0.542,-0.355 0.549,-0.318L0.427,-0.292C0.424,-0.312 0.418,-0.33 0.409,-0.346C0.4,-0.362 0.387,-0.375 0.37,-0.384C0.353,-0.393 0.331,-0.398 0.306,-0.398C0.281,-0.398 0.258,-0.393 0.238,-0.382C0.217,-0.371 0.201,-0.354 0.19,-0.333C0.178,-0.311 0.172,-0.284 0.172,-0.253L0.172,-0.243C0.172,-0.212 0.178,-0.185 0.19,-0.164C0.201,-0.142 0.217,-0.126 0.238,-0.115C0.258,-0.103 0.281,-0.098 0.306,-0.098C0.344,-0.098 0.373,-0.108 0.393,-0.128C0.412,-0.147 0.425,-0.173 0.43,-0.205L0.552,-0.176C0.543,-0.141 0.529,-0.109 0.508,-0.08C0.487,-0.051 0.459,-0.028 0.425,-0.011C0.391,0.006 0.35,0.014 0.303,0.014Z" style="fill:rgb(252,252,253);fill-rule:nonzero;"/>
    </g>
    <g transform="matrix(27.9607,0,0,27.9607,98.4358,29.5905)">
        <path d="M0.07,-0L0.07,-0.7L0.196,-0.7L0.196,-0.435L0.214,-0.435C0.219,-0.446 0.228,-0.456 0.239,-0.467C0.25,-0.478 0.266,-0.487 0.285,-0.494C0.304,-0.501 0.328,-0.504 0.357,-0.504C0.396,-0.504 0.43,-0.495 0.459,-0.478C0.488,-0.46 0.51,-0.436 0.526,-0.405C0.542,-0.374 0.55,-0.337 0.55,-0.296L0.55,-0L0.424,-0L0.424,-0.286C0.424,-0.323 0.415,-0.351 0.397,-0.37C0.378,-0.389 0.352,-0.398 0.318,-0.398C0.279,-0.398 0.249,-0.385 0.228,-0.36C0.207,-0.334 0.196,-0.298 0.196,-0.252L0.196,-0L0.07,-0Z" style="fill:rgb(252,252,253);fill-rule:nonzero;"/>
    </g>
    <g transform="matrix(27.9607,0,0,27.9607,115.66,29.5905)">
        <path d="M0.224,0.014C0.189,0.014 0.157,0.008 0.129,-0.005C0.101,-0.017 0.079,-0.035 0.063,-0.059C0.046,-0.082 0.038,-0.111 0.038,-0.145C0.038,-0.179 0.046,-0.208 0.063,-0.231C0.079,-0.254 0.101,-0.271 0.131,-0.283C0.16,-0.294 0.193,-0.3 0.23,-0.3L0.366,-0.3L0.366,-0.328C0.366,-0.351 0.359,-0.371 0.344,-0.386C0.329,-0.401 0.306,-0.408 0.274,-0.408C0.243,-0.408 0.219,-0.401 0.204,-0.387C0.189,-0.372 0.179,-0.354 0.174,-0.331L0.058,-0.37C0.066,-0.395 0.079,-0.419 0.097,-0.44C0.114,-0.46 0.138,-0.478 0.168,-0.491C0.197,-0.503 0.233,-0.51 0.276,-0.51C0.341,-0.51 0.393,-0.494 0.431,-0.461C0.469,-0.428 0.488,-0.381 0.488,-0.319L0.488,-0.134C0.488,-0.114 0.497,-0.104 0.516,-0.104L0.556,-0.104L0.556,-0L0.472,-0C0.447,-0 0.427,-0.006 0.411,-0.018C0.395,-0.03 0.387,-0.046 0.387,-0.066L0.387,-0.067L0.368,-0.067C0.365,-0.059 0.359,-0.049 0.35,-0.036C0.341,-0.023 0.326,-0.011 0.306,-0.001C0.286,0.009 0.259,0.014 0.224,0.014ZM0.246,-0.088C0.281,-0.088 0.31,-0.098 0.333,-0.118C0.355,-0.137 0.366,-0.163 0.366,-0.196L0.366,-0.206L0.239,-0.206C0.216,-0.206 0.197,-0.201 0.184,-0.191C0.171,-0.181 0.164,-0.167 0.164,-0.149C0.164,-0.131 0.171,-0.116 0.185,-0.105C0.199,-0.094 0.219,-0.088 0.246,-0.088Z" style="fill:rgb(252,252,253);fill-rule:nonzero;"/>
    </g>
    <g transform="matrix(27.9607,0,0,27.9607,131.821,29.5905)">
        <path d="M0.07,-0L0.07,-0.496L0.194,-0.496L0.194,-0.431L0.212,-0.431C0.22,-0.448 0.235,-0.465 0.257,-0.481C0.279,-0.496 0.312,-0.504 0.357,-0.504C0.396,-0.504 0.43,-0.495 0.459,-0.478C0.488,-0.46 0.51,-0.436 0.526,-0.405C0.542,-0.374 0.55,-0.337 0.55,-0.296L0.55,-0L0.424,-0L0.424,-0.286C0.424,-0.323 0.415,-0.351 0.397,-0.37C0.378,-0.389 0.352,-0.398 0.318,-0.398C0.279,-0.398 0.249,-0.385 0.228,-0.36C0.207,-0.334 0.196,-0.298 0.196,-0.252L0.196,-0L0.07,-0Z" style="fill:rgb(252,252,253);fill-rule:nonzero;"/>
    </g>
    <g transform="matrix(27.9607,0,0,27.9607,149.045,29.5905)">
        <path d="M0.296,0.014C0.247,0.014 0.203,0.003 0.166,-0.018C0.128,-0.039 0.098,-0.068 0.078,-0.107C0.056,-0.145 0.046,-0.19 0.046,-0.242L0.046,-0.254C0.046,-0.306 0.056,-0.351 0.077,-0.39C0.098,-0.428 0.127,-0.458 0.164,-0.479C0.201,-0.5 0.245,-0.51 0.294,-0.51C0.343,-0.51 0.385,-0.499 0.421,-0.478C0.457,-0.456 0.485,-0.426 0.505,-0.388C0.525,-0.349 0.535,-0.305 0.535,-0.254L0.535,-0.211L0.174,-0.211C0.175,-0.177 0.188,-0.149 0.212,-0.128C0.236,-0.107 0.265,-0.096 0.3,-0.096C0.335,-0.096 0.361,-0.104 0.378,-0.119C0.395,-0.134 0.407,-0.151 0.416,-0.17L0.519,-0.116C0.51,-0.099 0.496,-0.08 0.479,-0.06C0.461,-0.039 0.437,-0.022 0.408,-0.008C0.379,0.007 0.341,0.014 0.296,0.014ZM0.175,-0.305L0.407,-0.305C0.404,-0.334 0.393,-0.357 0.373,-0.374C0.352,-0.391 0.326,-0.4 0.293,-0.4C0.259,-0.4 0.232,-0.391 0.212,-0.374C0.192,-0.357 0.18,-0.334 0.175,-0.305ZM0.13,-0.566L0.13,-0.666L0.458,-0.666L0.458,-0.566L0.13,-0.566Z" style="fill:rgb(252,252,253);fill-rule:nonzero;"/>
    </g>
    <g transform="matrix(27.9607,0,0,27.9607,165.178,29.5905)">
    </g>
</svg>
